<svg version="1.1" xmlns="http://www.w3.org/2000/svg" xmlns:xlink="http://www.w3.org/1999/xlink" width="904.8" height="360"><style xmlns="http://www.w3.org/1999/xhtml"></style><defs/><g transform="translate(0,0)"><g><rect fill="#FFFFFF" stroke="none" x="0" y="0" width="904.8" height="360"/></g><g transform="translate(0,0) matrix(1,0,0,1,64.19872981077805,80)"><g><g transform="translate(0,0) scale(1.6,0.75)"><g><path fill="#1c4587" stroke="none" d="M 100 50 A 50 50 0 1 0 99.99997500000208 50.04999999166668 Z"/><g transform="scale(0.625,1.3333333333333333)"><path fill="none" stroke="#333333" d="M 80 0 M 80 0 C 124.18277599999999 0 160 16.78932375 160 37.5 C 160 58.21067625 124.18277599999999 75 80 75 C 35.817224 75 0 58.21067625 0 37.5 C 0 16.78932375 35.817224 0 80 0 Z" stroke-miterlimit="10" stroke-width="2"/></g></g></g></g></g><g transform="matrix(1,0,0,1,75,104)"><g><g><rect fill="rgb(0,0,0)" stroke="none" x="0" y="0" width="138" height="27" fill-opacity="0"/></g></g><g><g><rect fill="rgb(0,0,0)" stroke="none" x="0" y="0" width="138" height="27" fill-opacity="0"/></g></g><g><g><rect fill="rgb(0,0,0)" stroke="none" x="0.1015625" y="11" width="138" height="14" fill-opacity="0"/></g></g><g><g><rect fill="rgb(0,0,0)" stroke="none" x="0.1015625" y="11" width="138" height="14" fill-opacity="0"/></g></g><g><g><rect fill="rgb(0,0,0)" stroke="none" x="0.1015625" y="0" width="138" height="27" fill-opacity="0"/></g><text fill="rgb(0, 0, 0)" stroke="none" font-family="Arial" font-size="24px" font-style="normal" font-weight="normal" text-decoration="" line-height="27px" x="0" y="22">C</text><text fill="rgb(0, 0, 0)" stroke="none" font-family="Arial" font-size="24px" font-style="normal" font-weight="normal" text-decoration="" line-height="27px" x="17" y="22">o</text><text fill="rgb(0, 0, 0)" stroke="none" font-family="Arial" font-size="24px" font-style="normal" font-weight="normal" text-decoration="" line-height="27px" x="31" y="22">v</text><text fill="rgb(0, 0, 0)" stroke="none" font-family="Arial" font-size="24px" font-style="normal" font-weight="normal" text-decoration="" line-height="27px" x="43" y="22">e</text><text fill="rgb(0, 0, 0)" stroke="none" font-family="Arial" font-size="24px" font-style="normal" font-weight="normal" text-decoration="" line-height="27px" x="56" y="22">r</text><text fill="rgb(0, 0, 0)" stroke="none" font-family="Arial" font-size="24px" font-style="normal" font-weight="normal" text-decoration="" line-height="27px" x="71" y="22">I</text><text fill="rgb(0, 0, 0)" stroke="none" font-family="Arial" font-size="24px" font-style="normal" font-weight="normal" text-decoration="" line-height="27px" x="77" y="22">m</text><text fill="rgb(0, 0, 0)" stroke="none" font-family="Arial" font-size="24px" font-style="normal" font-weight="normal" text-decoration="" line-height="27px" x="97" y="22">a</text><text fill="rgb(0, 0, 0)" stroke="none" font-family="Arial" font-size="24px" font-style="normal" font-weight="normal" text-decoration="" line-height="27px" x="111" y="22">g</text><text fill="rgb(0, 0, 0)" stroke="none" font-family="Arial" font-size="24px" font-style="normal" font-weight="normal" text-decoration="" line-height="27px" x="124" y="22">e</text></g><g><g/></g></g><g transform="translate(0,0) matrix(1,0,0,1,64.19872981077805,265)"><g><g transform="translate(0,0) scale(1.6,0.75)"><g><path fill="#1c4587" stroke="none" d="M 100 50 A 50 50 0 1 0 99.99997500000208 50.04999999166668 Z"/><g transform="scale(0.625,1.3333333333333333)"><path fill="none" stroke="#333333" d="M 80 0 M 80 0 C 124.18277599999999 0 160 16.78932375 160 37.5 C 160 58.21067625 124.18277599999999 75 80 75 C 35.817224 75 0 58.21067625 0 37.5 C 0 16.78932375 35.817224 0 80 0 Z" stroke-miterlimit="10" stroke-width="2"/></g></g></g></g></g><g transform="matrix(1,0,0,1,75,276)"><g><g><rect fill="rgb(0,0,0)" stroke="none" x="0" y="0" width="138" height="54" fill-opacity="0"/></g></g><g><g><rect fill="rgb(0,0,0)" stroke="none" x="0" y="0" width="138" height="54" fill-opacity="0"/></g></g><g><g><rect fill="rgb(0,0,0)" stroke="none" x="8.767578125" y="0" width="121" height="54" fill-opacity="0"/></g></g><g><g><rect fill="rgb(0,0,0)" stroke="none" x="8.767578125" y="0" width="121" height="54" fill-opacity="0"/></g><text fill="rgb(0, 0, 0)" stroke="none" font-family="Arial" font-size="24px" font-style="normal" font-weight="normal" text-decoration="" line-height="27px" x="34" y="22">S</text><text fill="rgb(0, 0, 0)" stroke="none" font-family="Arial" font-size="24px" font-style="normal" font-weight="normal" text-decoration="" line-height="27px" x="50" y="22">e</text><text fill="rgb(0, 0, 0)" stroke="none" font-family="Arial" font-size="24px" font-style="normal" font-weight="normal" text-decoration="" line-height="27px" x="63" y="22">c</text><text fill="rgb(0, 0, 0)" stroke="none" font-family="Arial" font-size="24px" font-style="normal" font-weight="normal" text-decoration="" line-height="27px" x="75" y="22">r</text><text fill="rgb(0, 0, 0)" stroke="none" font-family="Arial" font-size="24px" font-style="normal" font-weight="normal" text-decoration="" line-height="27px" x="83" y="22">e</text><text fill="rgb(0, 0, 0)" stroke="none" font-family="Arial" font-size="24px" font-style="normal" font-weight="normal" text-decoration="" line-height="27px" x="97" y="22">t</text><text fill="rgb(0, 0, 0)" stroke="none" font-family="Arial" font-size="24px" font-style="normal" font-weight="normal" text-decoration="" line-height="27px" x="9" y="49">I</text><text fill="rgb(0, 0, 0)" stroke="none" font-family="Arial" font-size="24px" font-style="normal" font-weight="normal" text-decoration="" line-height="27px" x="15" y="49">n</text><text fill="rgb(0, 0, 0)" stroke="none" font-family="Arial" font-size="24px" font-style="normal" font-weight="normal" text-decoration="" line-height="27px" x="29" y="49">f</text><text fill="rgb(0, 0, 0)" stroke="none" font-family="Arial" font-size="24px" font-style="normal" font-weight="normal" text-decoration="" line-height="27px" x="35" y="49">o</text><text fill="rgb(0, 0, 0)" stroke="none" font-family="Arial" font-size="24px" font-style="normal" font-weight="normal" text-decoration="" line-height="27px" x="49" y="49">r</text><text fill="rgb(0, 0, 0)" stroke="none" font-family="Arial" font-size="24px" font-style="normal" font-weight="normal" text-decoration="" line-height="27px" x="57" y="49">m</text><text fill="rgb(0, 0, 0)" stroke="none" font-family="Arial" font-size="24px" font-style="normal" font-weight="normal" text-decoration="" line-height="27px" x="77" y="49">a</text><text fill="rgb(0, 0, 0)" stroke="none" font-family="Arial" font-size="24px" font-style="normal" font-weight="normal" text-decoration="" line-height="27px" x="90" y="49">t</text><text fill="rgb(0, 0, 0)" stroke="none" font-family="Arial" font-size="24px" font-style="normal" font-weight="normal" text-decoration="" line-height="27px" x="97" y="49">i</text><text fill="rgb(0, 0, 0)" stroke="none" font-family="Arial" font-size="24px" font-style="normal" font-weight="normal" text-decoration="" line-height="27px" x="102" y="49">o</text><text fill="rgb(0, 0, 0)" stroke="none" font-family="Arial" font-size="24px" font-style="normal" font-weight="normal" text-decoration="" line-height="27px" x="115" y="49">n</text></g></g><g transform="translate(0,0) matrix(1,0,0,1,370,190)"><g><g transform="translate(0,0) scale(2.1,0.75)"><g><path fill="#1c4587" stroke="none" d="M 0 0 L 100 0 Q 100 0 100 0 L 100 100 Q 100 100 100 100 L 0 100 Q 0 100 0 100 L 0 0 Q 0 0 0 0 Z"/><g transform="scale(0.47619047619047616,1.3333333333333333)"><path fill="none" stroke="none" d="M 0 0 L 210 0 Q 210 0 210 0 L 210 75 Q 210 75 210 75 L 0 75 Q 0 75 0 75 L 0 0 Q 0 0 0 0 Z"/><path fill="none" stroke="#333333" d="M 0 0 M 0 0 L 210 0 Q 210 0 210 0 L 210 75 Q 210 75 210 75 L 0 75 Q 0 75 0 75 L 0 0 Q 0 0 0 0 Z" stroke-miterlimit="10" stroke-width="2"/></g></g></g></g></g><g transform="matrix(1,0,0,1,382,201)"><g><g><rect fill="rgb(0,0,0)" stroke="none" x="0" y="0" width="186" height="54" fill-opacity="0"/></g></g><g><g><rect fill="rgb(0,0,0)" stroke="none" x="0" y="0" width="186" height="54" fill-opacity="0"/></g></g><g><g><rect fill="rgb(0,0,0)" stroke="none" x="8.732421875" y="0" width="169" height="54" fill-opacity="0"/></g></g><g><g><rect fill="rgb(0,0,0)" stroke="none" x="8.732421875" y="0" width="169" height="54" fill-opacity="0"/></g><text fill="rgb(0, 0, 0)" stroke="none" font-family="Arial" font-size="24px" font-style="normal" font-weight="normal" text-decoration="" line-height="27px" x="9" y="22">S</text><text fill="rgb(0, 0, 0)" stroke="none" font-family="Arial" font-size="24px" font-style="normal" font-weight="normal" text-decoration="" line-height="27px" x="25" y="22">t</text><text fill="rgb(0, 0, 0)" stroke="none" font-family="Arial" font-size="24px" font-style="normal" font-weight="normal" text-decoration="" line-height="27px" x="31" y="22">e</text><text fill="rgb(0, 0, 0)" stroke="none" font-family="Arial" font-size="24px" font-style="normal" font-weight="normal" text-decoration="" line-height="27px" x="45" y="22">g</text><text fill="rgb(0, 0, 0)" stroke="none" font-family="Arial" font-size="24px" font-style="normal" font-weight="normal" text-decoration="" line-height="27px" x="58" y="22">a</text><text fill="rgb(0, 0, 0)" stroke="none" font-family="Arial" font-size="24px" font-style="normal" font-weight="normal" text-decoration="" line-height="27px" x="71" y="22">n</text><text fill="rgb(0, 0, 0)" stroke="none" font-family="Arial" font-size="24px" font-style="normal" font-weight="normal" text-decoration="" line-height="27px" x="85" y="22">o</text><text fill="rgb(0, 0, 0)" stroke="none" font-family="Arial" font-size="24px" font-style="normal" font-weight="normal" text-decoration="" line-height="27px" x="98" y="22">g</text><text fill="rgb(0, 0, 0)" stroke="none" font-family="Arial" font-size="24px" font-style="normal" font-weight="normal" text-decoration="" line-height="27px" x="111" y="22">r</text><text fill="rgb(0, 0, 0)" stroke="none" font-family="Arial" font-size="24px" font-style="normal" font-weight="normal" text-decoration="" line-height="27px" x="119" y="22">a</text><text fill="rgb(0, 0, 0)" stroke="none" font-family="Arial" font-size="24px" font-style="normal" font-weight="normal" text-decoration="" line-height="27px" x="133" y="22">p</text><text fill="rgb(0, 0, 0)" stroke="none" font-family="Arial" font-size="24px" font-style="normal" font-weight="normal" text-decoration="" line-height="27px" x="146" y="22">h</text><text fill="rgb(0, 0, 0)" stroke="none" font-family="Arial" font-size="24px" font-style="normal" font-weight="normal" text-decoration="" line-height="27px" x="160" y="22">i</text><text fill="rgb(0, 0, 0)" stroke="none" font-family="Arial" font-size="24px" font-style="normal" font-weight="normal" text-decoration="" line-height="27px" x="165" y="22">c</text><text fill="rgb(0, 0, 0)" stroke="none" font-family="Arial" font-size="24px" font-style="normal" font-weight="normal" text-decoration="" line-height="27px" x="37" y="49">T</text><text fill="rgb(0, 0, 0)" stroke="none" font-family="Arial" font-size="24px" font-style="normal" font-weight="normal" text-decoration="" line-height="27px" x="51" y="49">e</text><text fill="rgb(0, 0, 0)" stroke="none" font-family="Arial" font-size="24px" font-style="normal" font-weight="normal" text-decoration="" line-height="27px" x="65" y="49">c</text><text fill="rgb(0, 0, 0)" stroke="none" font-family="Arial" font-size="24px" font-style="normal" font-weight="normal" text-decoration="" line-height="27px" x="77" y="49">h</text><text fill="rgb(0, 0, 0)" stroke="none" font-family="Arial" font-size="24px" font-style="normal" font-weight="normal" text-decoration="" line-height="27px" x="90" y="49">n</text><text fill="rgb(0, 0, 0)" stroke="none" font-family="Arial" font-size="24px" font-style="normal" font-weight="normal" text-decoration="" line-height="27px" x="103" y="49">i</text><text fill="rgb(0, 0, 0)" stroke="none" font-family="Arial" font-size="24px" font-style="normal" font-weight="normal" text-decoration="" line-height="27px" x="109" y="49">q</text><text fill="rgb(0, 0, 0)" stroke="none" font-family="Arial" font-size="24px" font-style="normal" font-weight="normal" text-decoration="" line-height="27px" x="122" y="49">u</text><text fill="rgb(0, 0, 0)" stroke="none" font-family="Arial" font-size="24px" font-style="normal" font-weight="normal" text-decoration="" line-height="27px" x="135" y="49">e</text></g></g><g transform="translate(0,0) matrix(1,0,0,1,720,190)"><g><g transform="translate(0,0) scale(1.6,0.75)"><g><path fill="#1c4587" stroke="none" d="M 100 50 A 50 50 0 1 0 99.99997500000208 50.04999999166668 Z"/><g transform="scale(0.625,1.3333333333333333)"><path fill="none" stroke="#333333" d="M 80 0 M 80 0 C 124.18277599999999 0 160 16.78932375 160 37.5 C 160 58.21067625 124.18277599999999 75 80 75 C 35.817224 75 0 58.21067625 0 37.5 C 0 16.78932375 35.817224 0 80 0 Z" stroke-miterlimit="10" stroke-width="2"/></g></g></g></g></g><g transform="matrix(1,0,0,1,731,201)"><g><g><rect fill="rgb(0,0,0)" stroke="none" x="0" y="0" width="138" height="54" fill-opacity="0"/></g></g><g><g><rect fill="rgb(0,0,0)" stroke="none" x="0" y="0" width="138" height="54" fill-opacity="0"/></g></g><g><g><rect fill="rgb(0,0,0)" stroke="none" x="0.7578125" y="11" width="137" height="41" fill-opacity="0"/></g></g><g><g><rect fill="rgb(0,0,0)" stroke="none" x="0.7578125" y="11" width="137" height="41" fill-opacity="0"/></g></g><g><g><rect fill="rgb(0,0,0)" stroke="none" x="0.7578125" y="0" width="137" height="54" fill-opacity="0"/></g><text fill="rgb(0, 0, 0)" stroke="none" font-family="Arial" font-size="24px" font-style="normal" font-weight="normal" text-decoration="" line-height="27px" x="1" y="22">S</text><text fill="rgb(0, 0, 0)" stroke="none" font-family="Arial" font-size="24px" font-style="normal" font-weight="normal" text-decoration="" line-height="27px" x="17" y="22">t</text><text fill="rgb(0, 0, 0)" stroke="none" font-family="Arial" font-size="24px" font-style="normal" font-weight="normal" text-decoration="" line-height="27px" x="23" y="22">e</text><text fill="rgb(0, 0, 0)" stroke="none" font-family="Arial" font-size="24px" font-style="normal" font-weight="normal" text-decoration="" line-height="27px" x="37" y="22">g</text><text fill="rgb(0, 0, 0)" stroke="none" font-family="Arial" font-size="24px" font-style="normal" font-weight="normal" text-decoration="" line-height="27px" x="50" y="22">o</text><text fill="rgb(0, 0, 0)" stroke="none" font-family="Arial" font-size="24px" font-style="normal" font-weight="normal" text-decoration="" line-height="27px" x="63" y="22">-</text><text fill="rgb(0, 0, 0)" stroke="none" font-family="Arial" font-size="24px" font-style="normal" font-weight="normal" text-decoration="" line-height="27px" x="71" y="22">i</text><text fill="rgb(0, 0, 0)" stroke="none" font-family="Arial" font-size="24px" font-style="normal" font-weight="normal" text-decoration="" line-height="27px" x="77" y="22">m</text><text fill="rgb(0, 0, 0)" stroke="none" font-family="Arial" font-size="24px" font-style="normal" font-weight="normal" text-decoration="" line-height="27px" x="97" y="22">a</text><text fill="rgb(0, 0, 0)" stroke="none" font-family="Arial" font-size="24px" font-style="normal" font-weight="normal" text-decoration="" line-height="27px" x="110" y="22">g</text><text fill="rgb(0, 0, 0)" stroke="none" font-family="Arial" font-size="24px" font-style="normal" font-weight="normal" text-decoration="" line-height="27px" x="123" y="22">e</text><text fill="rgb(0, 0, 0)" stroke="none" font-family="Arial" font-size="24px" font-style="normal" font-weight="normal" text-decoration="" line-height="27px" x="2" y="49">o</text><text fill="rgb(0, 0, 0)" stroke="none" font-family="Arial" font-size="24px" font-style="normal" font-weight="normal" text-decoration="" line-height="27px" x="15" y="49">r</text><text fill="rgb(0, 0, 0)" stroke="none" font-family="Arial" font-size="24px" font-style="normal" font-weight="normal" text-decoration="" line-height="27px" x="30" y="49">b</text><text fill="rgb(0, 0, 0)" stroke="none" font-family="Arial" font-size="24px" font-style="normal" font-weight="normal" text-decoration="" line-height="27px" x="43" y="49">i</text><text fill="rgb(0, 0, 0)" stroke="none" font-family="Arial" font-size="24px" font-style="normal" font-weight="normal" text-decoration="" line-height="27px" x="49" y="49">t</text><text fill="rgb(0, 0, 0)" stroke="none" font-family="Arial" font-size="24px" font-style="normal" font-weight="normal" text-decoration="" line-height="27px" x="62" y="49">s</text><text fill="rgb(0, 0, 0)" stroke="none" font-family="Arial" font-size="24px" font-style="normal" font-weight="normal" text-decoration="" line-height="27px" x="74" y="49">t</text><text fill="rgb(0, 0, 0)" stroke="none" font-family="Arial" font-size="24px" font-style="normal" font-weight="normal" text-decoration="" line-height="27px" x="81" y="49">r</text><text fill="rgb(0, 0, 0)" stroke="none" font-family="Arial" font-size="24px" font-style="normal" font-weight="normal" text-decoration="" line-height="27px" x="89" y="49">e</text><text fill="rgb(0, 0, 0)" stroke="none" font-family="Arial" font-size="24px" font-style="normal" font-weight="normal" text-decoration="" line-height="27px" x="102" y="49">a</text><text fill="rgb(0, 0, 0)" stroke="none" font-family="Arial" font-size="24px" font-style="normal" font-weight="normal" text-decoration="" line-height="27px" x="115" y="49">m</text></g><g><g/></g></g><g transform="translate(0,0) matrix(1,0,0,1,600,202.5)"><g><g transform="translate(0,0) scale(1,0.5)"><g><g transform="scale(1,2)"><path fill="#1c4587" stroke="none" d="M 0 15 L 75 15 L 75 0 L 100 25 L 75 50 L 75 35 L 0 35 L 0 15 Z"/><path fill="none" stroke="#333333" d="M 0 15 M 0 15 L 75 15 L 75 0 L 100 25 L 75 50 L 75 35 L 0 35 L 0 15 Z" stroke-miterlimit="10" stroke-width="2"/></g></g></g></g></g><g transform="translate(0,0) matrix(0.8660254037844387,0.49999999999999994,-0.49999999999999994,0.8660254037844387,231.87822173508928,128.34936490538905)"><g><g transform="translate(0,0) scale(1.4,0.5)"><g><g transform="scale(0.7142857142857143,2)"><path fill="#1c4587" stroke="none" d="M 0 15 L 114.99999999999999 15 L 114.99999999999999 0 L 140 25 L 114.99999999999999 50 L 114.99999999999999 35 L 0 35 L 0 15 Z"/><path fill="none" stroke="#333333" d="M 0 15 M 0 15 L 114.99999999999999 15 L 114.99999999999999 0 L 140 25 L 114.99999999999999 50 L 114.99999999999999 35 L 0 35 L 0 15 Z" stroke-miterlimit="10" stroke-width="2"/></g></g></g></g></g><g transform="translate(0,0) matrix(0.9659258262890683,-0.2588190451025207,0.2588190451025207,0.9659258262890683,225.23323255798357,273.7928065978996)"><g><g transform="translate(0,0) scale(1.3,0.5)"><g><g transform="scale(0.7692307692307692,2)"><path fill="#1c4587" stroke="none" d="M 0 15 L 105.00000000000001 15 L 105.00000000000001 0 L 130 25 L 105.00000000000001 50 L 105.00000000000001 35 L 0 35 L 0 15 Z"/><path fill="none" stroke="#333333" d="M 0 15 M 0 15 L 105.00000000000001 15 L 105.00000000000001 0 L 130 25 L 105.00000000000001 50 L 105.00000000000001 35 L 0 35 L 0 15 Z" stroke-miterlimit="10" stroke-width="2"/></g></g></g></g></g></g></svg>